<svg width="30" height="30" viewBox="0 0 30 30" fill="none" xmlns="http://www.w3.org/2000/svg">
<path d="M7.63349 14.7684L12.1593 12.1556C12.6708 11.8603 13.044 11.3739 13.1968 10.8034C13.3496 10.233 13.2696 9.62512 12.9743 9.11367C12.679 8.60222 12.1926 8.22906 11.6221 8.07623C11.0516 7.9234 10.4438 8.00343 9.93239 8.29874L2.11255 12.8136L7.63349 14.7684Z" fill="#FF281F"/>
<path d="M11.0438 21.4838C11.5339 21.4839 12.0104 21.3223 12.3994 21.0242C12.7883 20.726 13.0681 20.3078 13.1953 19.8345C13.3224 19.3612 13.29 18.8591 13.1028 18.4062C12.9157 17.9532 12.5844 17.5746 12.1602 17.329L4.34005 12.8142C3.82861 12.5189 3.22081 12.4389 2.65038 12.5918C2.07994 12.7447 1.59358 13.1179 1.29831 13.6293C1.00304 14.1408 0.92303 14.7485 1.07589 15.319C1.22875 15.8894 1.60195 16.3758 2.1134 16.671L9.93324 21.1858C10.2708 21.3811 10.6539 21.4839 11.0438 21.4838V21.4838Z" fill="#0080FC"/>
<path d="M18.8227 21.4839C19.2131 21.4838 19.5964 21.3807 19.9342 21.185L27.754 16.6705L22.303 14.6751L17.7075 17.3282C17.2828 17.5733 16.9509 17.9519 16.7632 18.405C16.5756 18.8581 16.5428 19.3604 16.6699 19.8341C16.7971 20.3077 17.077 20.7262 17.4662 21.0245C17.8555 21.3228 18.3323 21.4843 18.8227 21.4839Z" fill="#FFB800"/>
<path d="M26.637 16.9688C27.1274 16.9691 27.6041 16.8077 27.9933 16.5094C28.3825 16.2112 28.6624 15.7928 28.7895 15.3192C28.9167 14.8456 28.8839 14.3433 28.6964 13.8903C28.5089 13.4372 28.1771 13.0586 27.7525 12.8134L19.9353 8.29829C19.6821 8.15209 19.4025 8.05721 19.1126 8.01904C18.8227 7.98088 18.5281 8.0002 18.2456 8.07589C17.9632 8.15157 17.6984 8.28216 17.4664 8.46017C17.2344 8.63819 17.0398 8.86015 16.8936 9.1134C16.7473 9.36664 16.6525 9.64617 16.6143 9.93608C16.5761 10.226 16.5954 10.5206 16.6711 10.8031C16.7468 11.0855 16.8774 11.3503 17.0554 11.5823C17.2334 11.8143 17.4554 12.0089 17.7086 12.1551L25.5285 16.6699C25.8653 16.8652 26.2477 16.9682 26.637 16.9688V16.9688Z" fill="#009E49"/>
</svg>
