<svg xmlns="http://www.w3.org/2000/svg" version="1.1" xmlns:xlink="http://www.w3.org/1999/xlink"
    xmlns:svgjs="http://svgjs.com/svgjs" width="512" height="512" x="0" y="0" viewBox="0 0 28 28"
    style="enable-background:new 0 0 512 512" xml:space="preserve" class="">
    <g>
        <g data-name="Layer 2">
            <path
                d="M3 9.5a.5.5 0 0 0 .5-.5V5.112A1.614 1.614 0 0 1 5.112 3.5H9a.5.5 0 0 0 0-1H5.112A2.615 2.615 0 0 0 2.5 5.112V9a.5.5 0 0 0 .5.5ZM22.888 2.5H19a.5.5 0 0 0 0 1h3.888A1.614 1.614 0 0 1 24.5 5.112V9a.5.5 0 0 0 1 0V5.112A2.615 2.615 0 0 0 22.888 2.5ZM9 24.5H5.112A1.614 1.614 0 0 1 3.5 22.888V19a.5.5 0 0 0-1 0v3.888A2.615 2.615 0 0 0 5.112 25.5H9a.5.5 0 0 0 0-1ZM25 18.5a.5.5 0 0 0-.5.5v3.888a1.614 1.614 0 0 1-1.612 1.612H19a.5.5 0 0 0 0 1h3.888a2.615 2.615 0 0 0 2.612-2.612V19a.5.5 0 0 0-.5-.5ZM21 17.75v-7.5a.5.5 0 0 0-.25-.433l-6.5-3.75a.5.5 0 0 0-.5 0l-6.495 3.75a.5.5 0 0 0-.25.433v7.5a.5.5 0 0 0 .25.433l6.5 3.75a.5.5 0 0 0 .5 0l6.5-3.75A.5.5 0 0 0 21 17.75ZM14 7.077l5.5 3.173-5.5 3.173-5.495-3.173Zm-5.995 4.039 5.495 3.173v6.345l-5.495-3.173Zm6.495 9.518v-6.345l5.5-3.173v6.345Z"
                fill="#ffffff" data-original="#000000" class="" opacity="1"></path>
        </g>
    </g>
</svg>