<svg width="100" height="100" viewBox="0 0 100 100" fill="none" xmlns="http://www.w3.org/2000/svg">
<path d="M49.9999 5C25.25 5 5 25.2861 5 50.2711C5 72.8615 21.47 91.6114 42.9799 95V63.3735H31.55V50.2711H42.9799V40.2861C42.9799 28.9458 49.6849 22.7108 59.9899 22.7108C64.8949 22.7108 70.0249 23.5693 70.0249 23.5693V34.7289H64.3549C58.7749 34.7289 57.0199 38.2078 57.0199 41.7771V50.2711H69.5299L67.5049 63.3735H57.0199V95C67.6239 93.3186 77.2798 87.8864 84.2446 79.684C91.2093 71.4816 95.024 61.0496 94.9999 50.2711C94.9999 25.2861 74.7499 5 49.9999 5Z" fill="#707070"/>
</svg>
