<svg width="100" height="100" viewBox="0 0 100 100" fill="none" xmlns="http://www.w3.org/2000/svg">
<path d="M35.1059 76.6568C35.1059 77.0167 34.6884 77.3101 34.1628 77.3101C33.5635 77.3641 33.146 77.0743 33.146 76.6568C33.146 76.2968 33.5635 76.0035 34.0891 76.0035C34.6344 75.9495 35.1059 76.2392 35.1059 76.6568ZM29.4637 75.8397C29.3359 76.1996 29.6995 76.619 30.243 76.7288C30.4406 76.8259 30.6682 76.8427 30.878 76.7756C31.0877 76.7085 31.2633 76.5627 31.3678 76.3688C31.4758 76.0089 31.1321 75.5895 30.5885 75.4258C30.3823 75.3511 30.1564 75.3517 29.9506 75.4275C29.7448 75.5032 29.5724 75.6492 29.4637 75.8397ZM37.4834 75.5319C36.9578 75.6597 36.5943 76.0035 36.6483 76.421C36.7023 76.781 37.1738 77.0203 37.7191 76.8925C38.2645 76.7648 38.6082 76.421 38.5542 76.0575C38.5002 75.6939 38.0107 75.4797 37.4834 75.5319ZM49.4193 6.00964C43.5649 5.88636 37.7459 6.94626 32.3109 9.12581C26.876 11.3054 21.937 14.5597 17.79 18.6938C13.6429 22.8279 10.3731 27.7567 8.17661 33.1848C5.98009 38.6129 4.90201 44.4286 5.00699 50.2833C4.93176 59.8281 7.86114 69.1546 13.3803 76.9422C18.8994 84.7298 26.7286 90.5838 35.7592 93.6752C38.0809 94.0927 38.898 92.6583 38.898 91.4795C38.898 90.3546 38.844 84.1491 38.844 80.3391C38.844 80.3391 26.145 83.0603 23.4778 74.9398C23.4778 74.9398 21.4099 69.6612 18.4385 68.2988C18.4385 68.2988 14.2847 65.4498 18.7282 65.5056C20.1749 65.7002 21.558 66.2231 22.7717 67.0341C23.9854 67.8451 24.9976 68.9228 25.731 70.1849C29.7049 77.1877 36.3621 75.1738 38.9574 73.977C39.1902 71.6634 40.2158 69.5016 41.8603 67.8578C31.7134 66.733 21.48 65.2626 21.48 47.8105C21.3792 45.8259 21.7097 43.843 22.4489 41.9983C23.188 40.1537 24.3182 38.4913 25.7616 37.1254C24.3855 33.1026 24.5536 28.712 26.2332 24.8062C30.0252 23.6273 38.7522 29.7051 38.7522 29.7051C46.2086 27.649 54.0824 27.649 61.5387 29.7051C61.5387 29.7051 70.2657 23.6093 74.0578 24.8062C75.738 28.7118 75.9061 33.1027 74.5293 37.1254C77.4323 40.3362 79.2086 42.8396 79.2086 47.8105C79.2086 65.3184 68.5235 66.7078 58.3802 67.8578C59.471 68.9554 60.3115 70.2759 60.8439 71.7289C61.3764 73.1818 61.5882 74.7327 61.465 76.2752C61.465 82.3944 61.411 89.9533 61.411 91.4417C61.411 92.6205 62.246 94.0549 64.5497 93.6374C73.5518 90.551 81.3459 84.6942 86.8149 76.9061C92.2839 69.1181 95.1471 59.7986 94.9942 50.2833C94.9942 25.1139 74.5833 6.00964 49.4193 6.00964ZM22.6445 68.5831C22.4087 68.7631 22.4645 69.1824 22.7723 69.5262C23.062 69.816 23.4796 69.9437 23.7153 69.7062C23.9511 69.5262 23.8953 69.1069 23.5875 68.7631C23.2942 68.4751 22.8766 68.3474 22.6445 68.5831ZM20.6828 67.1145C20.555 67.3503 20.7368 67.6401 21.1003 67.8218C21.1589 67.8671 21.2262 67.8998 21.298 67.918C21.3699 67.9362 21.4446 67.9393 21.5177 67.9274C21.5908 67.9154 21.6607 67.8885 21.7229 67.8483C21.7852 67.8082 21.8385 67.7557 21.8796 67.694C22.0074 67.4583 21.8256 67.1685 21.462 66.9868C21.1003 66.8788 20.8087 66.9328 20.6828 67.1145ZM26.5607 73.5738C26.271 73.8096 26.3807 74.3531 26.7965 74.6987C27.214 75.1162 27.7396 75.1702 27.9753 74.8786C28.2111 74.6429 28.1031 74.0993 27.7396 73.7538C27.34 73.3362 26.7965 73.2841 26.5607 73.5738ZM24.4928 70.9066C24.2031 71.0866 24.2031 71.5599 24.4928 71.9774C24.7826 72.395 25.2721 72.5768 25.5097 72.395C25.6513 72.242 25.73 72.0411 25.73 71.8326C25.73 71.624 25.6513 71.4232 25.5097 71.2701C25.2541 70.8508 24.7826 70.6708 24.4928 70.9066Z" fill="#707070"/>
</svg>
