<svg xmlns="http://www.w3.org/2000/svg" width="50" height="48.751" viewBox="0 0 50 48.751"><path d="M16.724,47.254c0,.2-.232.363-.524.363-.333.03-.565-.131-.565-.363,0-.2.232-.363.524-.363C16.462,46.861,16.724,47.022,16.724,47.254ZM13.589,46.8c-.071.2.131.433.433.494a.473.473,0,0,0,.625-.2c.06-.2-.131-.433-.433-.524A.517.517,0,0,0,13.589,46.8Zm4.456-.171c-.292.071-.494.262-.464.494.03.2.292.333.595.262s.494-.262.464-.464S18.337,46.6,18.044,46.629ZM24.677,8A24.172,24.172,0,0,0,0,32.6,25.273,25.273,0,0,0,17.087,56.71c1.29.232,1.744-.565,1.744-1.22,0-.625-.03-4.073-.03-6.19,0,0-7.056,1.512-8.538-3,0,0-1.149-2.933-2.8-3.69,0,0-2.308-1.583.161-1.552a5.321,5.321,0,0,1,3.891,2.6c2.208,3.891,5.907,2.772,7.349,2.107a5.6,5.6,0,0,1,1.613-3.4C14.839,41.74,9.153,40.923,9.153,31.226a7.64,7.64,0,0,1,2.379-5.937,9.524,9.524,0,0,1,.262-6.845c2.107-.655,6.956,2.722,6.956,2.722a23.815,23.815,0,0,1,12.661,0s4.849-3.387,6.956-2.722a9.52,9.52,0,0,1,.262,6.845c1.613,1.784,2.6,3.175,2.6,5.937,0,9.728-5.937,10.5-11.573,11.139a5.961,5.961,0,0,1,1.714,4.677c0,3.4-.03,7.6-.03,8.427,0,.655.464,1.452,1.744,1.22A25.04,25.04,0,0,0,50,32.6C50,18.615,38.659,8,24.677,8ZM9.8,42.768c-.131.1-.1.333.071.524.161.161.393.232.524.1.131-.1.1-.333-.071-.524C10.161,42.708,9.929,42.637,9.8,42.768ZM8.71,41.952c-.071.131.03.292.232.393a.3.3,0,0,0,.433-.071c.071-.131-.03-.292-.232-.393C8.942,41.821,8.78,41.851,8.71,41.952Zm3.266,3.589c-.161.131-.1.433.131.625.232.232.524.262.655.1.131-.131.071-.433-.131-.625C12.409,45.409,12.107,45.379,11.976,45.54Zm-1.149-1.482c-.161.1-.161.363,0,.595s.433.333.565.232a.46.46,0,0,0,0-.625C11.25,44.028,10.988,43.927,10.827,44.058Z" transform="translate(0 -8)" fill="#707070"/></svg>