<?xml version="1.0" encoding="utf-8"?>
<!-- Generator: Adobe Illustrator 19.2.1, SVG Export Plug-In . SVG Version: 6.00 Build 0)  -->
<svg version="1.1" id="Layer_1" xmlns="http://www.w3.org/2000/svg" xmlns:xlink="http://www.w3.org/1999/xlink"
	viewBox="0 0 64 64" style="enable-background:new 0 0 64 64;" xml:space="preserve">
	<path d="M29.1,39.6c1.9-0.6,3.4-2.1,3.9-4c0.6-2.4,1-5,1-7.6c0-3.4-0.7-6.7-1.9-9.7C28.9,18.1,25.5,18,22,18C9.8,18,0,20.7,0,24
		c0,7.6,2.9,14.5,7.5,19.5c0.3,0.3,0.6,0.5,1,0.5c0.6,0,1-0.4,1-1v-1c0-0.6,0.4-1,1-1c1,0,1.9,0.4,2.5,1s1.5,1,2.5,1
		c2.2,0,4.4-0.3,6.5-1L29.1,39.6z" fill="#fff"  />
	<path d="M34.3,18.4c1.1,3.1,1.7,6.3,1.7,9.6c12.9,0,26,2.4,26,7c0,1.8-1.9,3.2-5,4.3c4.3-0.7,7-1.9,7-3.3v-8
		C64,23.5,51.5,19.7,34.3,18.4z" fill="#fff"  />
	<path d="M54.5,32c-6,1.3-12.1,2-18.5,2c-0.2,0-0.4,0-0.6,0c-0.1,0.7-0.3,1.4-0.5,2.1c-0.3,1.3-1,2.4-1.9,3.4
		c2.5,0.2,5.2,0.3,7.9,0.4C53.5,39.3,60,36.6,60,35C60,34.2,58.1,33,54.5,32z" fill="#fff" />
</svg>