<svg xmlns="http://www.w3.org/2000/svg" width="50" height="49.989" viewBox="0 0 50 49.989"><path d="M24.931,44A12.817,12.817,0,1,0,37.747,56.819,12.8,12.8,0,0,0,24.931,44Zm0,21.149a8.332,8.332,0,1,1,8.332-8.332A8.348,8.348,0,0,1,24.931,65.152Zm16.33-21.673a2.989,2.989,0,1,1-2.989-2.989A2.982,2.982,0,0,1,41.261,43.479Zm8.489,3.034c-.19-4-1.1-7.552-4.038-10.474S39.242,32.2,35.237,32c-4.127-.234-16.5-.234-20.625,0-3.993.19-7.54,1.1-10.474,4.027S.3,42.5.1,46.5C-.134,50.629-.134,63,.1,67.126c.19,4,1.1,7.552,4.038,10.474s6.47,3.837,10.474,4.038c4.127.234,16.5.234,20.625,0,4-.19,7.552-1.1,10.474-4.038s3.837-6.47,4.038-10.474C49.984,63,49.984,50.64,49.749,46.513ZM44.417,71.554a8.436,8.436,0,0,1-4.752,4.752c-3.291,1.305-11.1,1-14.735,1s-11.456.29-14.735-1a8.436,8.436,0,0,1-4.752-4.752c-1.305-3.291-1-11.1-1-14.735s-.29-11.456,1-14.735A8.436,8.436,0,0,1,10.2,37.333c3.291-1.305,11.1-1,14.735-1s11.456-.29,14.735,1a8.436,8.436,0,0,1,4.752,4.752c1.305,3.291,1,11.1,1,14.735S45.723,68.275,44.417,71.554Z" transform="translate(0.075 -31.825)" fill="#707070"/></svg>