<svg width="100" height="100" viewBox="0 0 100 100" fill="none" xmlns="http://www.w3.org/2000/svg">
<path d="M50.011 26.9204C45.4482 26.92 40.9878 28.273 37.1938 30.8082C33.3997 33.3433 30.4425 36.9469 28.6959 41.1631C26.9494 45.3793 26.4921 50.0189 27.3818 54.4951C28.2715 58.9713 30.4682 63.0831 33.6942 66.3105C36.9202 69.538 41.0306 71.7362 45.5056 72.6271C49.9806 73.518 54.6192 73.0617 58.8349 71.3158C63.0506 69.5698 66.6541 66.6128 69.1896 62.8185C71.7251 59.0242 73.0788 54.5631 73.0795 49.9993C73.084 46.9677 72.4904 43.9651 71.3328 41.1633C70.1751 38.3616 68.4762 35.8158 66.3332 33.6719C64.1903 31.528 61.6455 29.8281 58.8447 28.6696C56.0438 27.511 53.0419 26.9166 50.011 26.9204ZM50.011 64.9964C47.0448 64.9964 44.1452 64.1166 41.6789 62.4683C39.2126 60.82 37.2904 58.4773 36.1553 55.7362C35.0201 52.9952 34.7231 49.9791 35.3018 47.0692C35.8805 44.1594 37.3089 41.4865 39.4063 39.3886C41.5037 37.2908 44.176 35.8621 47.0852 35.2833C49.9944 34.7045 53.0099 35.0015 55.7503 36.1369C58.4907 37.2723 60.833 39.1949 62.4809 41.6618C64.1288 44.1286 65.0084 47.0289 65.0084 49.9957C65.0022 53.9728 63.4203 57.7852 60.6093 60.5979C57.7982 63.4106 53.9872 64.9942 50.011 65.0018V64.9964ZM79.4046 25.977C79.4046 27.0413 79.089 28.0817 78.4979 28.9667C77.9067 29.8516 77.0664 30.5414 76.0833 30.9487C75.1003 31.356 74.0185 31.4625 72.9748 31.2549C71.9312 31.0473 70.9726 30.5347 70.2201 29.7822C69.4677 29.0296 68.9553 28.0707 68.7477 27.0268C68.5401 25.983 68.6467 24.901 69.0539 23.9177C69.4611 22.9344 70.1507 22.0939 71.0354 21.5026C71.9202 20.9113 72.9604 20.5957 74.0245 20.5957C74.7319 20.594 75.4327 20.7323 76.0866 21.0025C76.7404 21.2726 77.3344 21.6694 77.8344 22.17C78.3344 22.6706 78.7305 23.2652 79 23.9194C79.2695 24.5737 79.407 25.2748 79.4046 25.9824V25.977ZM94.6846 31.4393C94.3426 24.2378 92.7046 17.8429 87.4163 12.5823C82.1279 7.32157 75.7704 5.67604 68.5615 5.31596C61.1331 4.89468 38.862 4.89468 31.4371 5.31596C24.2498 5.65803 17.8653 7.29637 12.5842 12.5661C7.30307 17.8357 5.67589 24.2198 5.3159 31.4213C4.8947 38.855 4.8947 61.1274 5.3159 68.5557C5.65789 75.7572 7.29587 82.1521 12.5842 87.4128C17.8725 92.6735 24.23 94.3208 31.4371 94.6827C38.8656 95.104 61.1367 95.104 68.5615 94.6827C75.7614 94.3406 82.1549 92.7023 87.4145 87.4128C92.674 82.1233 94.321 75.7644 94.6828 68.5557C95.1057 61.1274 95.1057 38.8748 94.6828 31.4447L94.6846 31.4393ZM85.0853 76.5278C84.3217 78.4639 83.1685 80.2224 81.6971 81.6941C80.2257 83.1659 78.4675 84.3194 76.5318 85.0831C70.6081 87.4326 56.5521 86.8835 50.0092 86.8835C43.4663 86.8835 29.3887 87.4056 23.4866 85.0831C21.5509 84.3194 19.7928 83.1659 18.3214 81.6941C16.85 80.2224 15.6967 78.4639 14.9332 76.5278C12.5842 70.6027 13.1332 56.5437 13.1332 49.9993C13.1332 43.455 12.6112 29.3743 14.9332 23.4709C15.6979 21.5342 16.8527 19.7755 18.3257 18.3041C19.7987 16.8326 21.5584 15.6798 23.4956 14.9173C29.4193 12.5679 43.4753 13.117 50.0182 13.117C56.5611 13.117 70.6387 12.5949 76.5408 14.9173C78.4765 15.6811 80.2347 16.8346 81.7061 18.3063C83.1775 19.778 84.3307 21.5365 85.0943 23.4727C87.4433 29.3977 86.8943 43.4568 86.8943 50.0011C86.8943 56.5455 87.4361 70.6244 85.0853 76.5278Z" fill="#707070"/>
</svg>
