<svg width="100" height="100" viewBox="0 0 100 100" fill="none" xmlns="http://www.w3.org/2000/svg">
<path d="M25.2348 94.8831H6.59984V34.8723H25.2348V94.8831ZM15.9011 26.6873C13.7562 26.6987 11.6561 26.0736 9.86638 24.8913C8.0767 23.7089 6.67789 22.0223 5.84687 20.0448C5.01586 18.0674 4.78998 15.8879 5.19781 13.782C5.60563 11.6762 6.62884 9.73856 8.13801 8.2143C9.64718 6.69004 11.5745 5.64761 13.6762 5.21885C15.7779 4.79009 17.9595 4.99427 19.9452 5.80557C21.9308 6.61686 23.6312 7.99883 24.8313 9.77665C26.0315 11.5545 26.6774 13.6483 26.6874 15.7932C26.6903 18.6648 25.5583 21.4212 23.5379 23.4617C21.5175 25.5023 18.7726 26.6617 15.9011 26.6873ZM94.9802 94.8831H76.3848V65.6705C76.3848 58.708 76.2446 49.7806 66.6952 49.7806C57.0056 49.7806 55.5225 57.3453 55.5225 65.1689V94.8831H36.9073V34.8723H54.78V43.059H55.0407C56.8278 39.9994 59.4116 37.4821 62.5166 35.7754C65.6217 34.0687 69.1317 33.2365 72.6726 33.3676C91.5322 33.3676 95 45.7897 95 61.9187V94.8831H94.9802Z" fill="#707070"/>
</svg>
