<svg width="100" height="100" viewBox="0 0 100 100" fill="none" xmlns="http://www.w3.org/2000/svg">
<path d="M50 47.5C46.6848 47.5 43.5054 46.183 41.1612 43.8388C38.817 41.4946 37.5 38.3152 37.5 35C37.5 31.6848 38.817 28.5054 41.1612 26.1612C43.5054 23.817 46.6848 22.5 50 22.5C53.3152 22.5 56.4946 23.817 58.8388 26.1612C61.183 28.5054 62.5 31.6848 62.5 35C62.5 36.6415 62.1767 38.267 61.5485 39.7835C60.9203 41.3001 59.9996 42.6781 58.8388 43.8388C57.6781 44.9996 56.3001 45.9203 54.7835 46.5485C53.267 47.1767 51.6415 47.5 50 47.5ZM50 0C40.7174 0 31.815 3.68749 25.2513 10.2513C18.6875 16.815 15 25.7174 15 35C15 61.25 50 100 50 100C50 100 85 61.25 85 35C85 25.7174 81.3125 16.815 74.7487 10.2513C68.185 3.68749 59.2826 0 50 0Z" fill="#707070"/>
</svg>
