<svg xmlns="http://www.w3.org/2000/svg" width="250" height="250.001" viewBox="0 0 250 250.001"><path d="M245.416,126.025c-4.3-17.243-12.444-30.245-29.8-30.245H193.241v26.45c0,20.535-17.41,37.834-37.276,37.834h-59.6c-16.294,0-29.8,13.95-29.8,30.3v56.806c0,16.183,14.062,25.669,29.8,30.3,18.861,5.524,37,6.529,59.6,0,15.011-4.353,29.8-13.113,29.8-30.3V224.46H126.223v-7.589h89.394c17.354,0,23.772-12.109,29.8-30.245,6.25-18.694,5.971-36.662,0-60.6ZM159.7,239.582a11.357,11.357,0,1,1-11.216,11.328A11.277,11.277,0,0,1,159.7,239.582ZM93.635,152.587h59.6c16.573,0,29.8-13.671,29.8-30.3V65.425c0-16.183-13.616-28.292-29.8-31.026a183.938,183.938,0,0,0-59.6.056c-25.222,4.464-29.8,13.783-29.8,31.026V88.192h59.652v7.589H41.46c-17.354,0-32.532,10.435-37.276,30.245-5.469,22.711-5.692,36.885,0,60.6,4.241,17.633,14.341,30.245,31.7,30.245H56.359V189.639C56.359,169.941,73.379,152.587,93.635,152.587ZM89.9,73.014a11.357,11.357,0,1,1,11.216-11.328A11.277,11.277,0,0,1,89.9,73.014Z" transform="translate(0.001 -31.999)" fill="#fff"/></svg>