<svg width="100" height="100" viewBox="0 0 100 100" fill="none" xmlns="http://www.w3.org/2000/svg">
<path d="M45 8C20.1471 8 0 28.1471 0 53C0 77.8529 20.1471 98 45 98C69.8529 98 90 77.8529 90 53C90 28.1471 69.8529 8 45 8ZM65.8582 38.6036C65.181 45.7193 62.2508 62.9867 60.7594 70.9565C60.1287 74.3285 58.8865 75.4594 57.6842 75.5699C55.0713 75.8105 53.0866 73.843 50.5555 72.1838C46.595 69.5876 44.3575 67.9714 40.5129 65.438C36.07 62.5102 38.9502 60.9017 41.4822 58.2706C42.1449 57.5824 53.6589 47.1095 53.8817 46.1595C53.9095 46.0406 53.9361 45.597 53.6723 45.364C53.4085 45.131 53.0209 45.2099 52.7405 45.2732C52.3434 45.3635 46.0163 49.5455 33.7593 57.8192C31.9635 59.0523 30.3368 59.6532 28.8793 59.6217C27.2725 59.5871 24.1819 58.7134 21.8842 57.9663C19.066 57.0504 16.8262 56.5661 17.0213 55.0103C17.1229 54.1998 18.2388 53.3712 20.369 52.5244C33.4875 46.8089 42.2352 43.0408 46.612 41.22C59.109 36.0219 61.7057 35.119 63.3983 35.0889C63.7706 35.0827 64.6029 35.1749 65.142 35.6124C65.5007 35.924 65.7292 36.3589 65.7826 36.831C65.8739 37.4172 65.8993 38.0118 65.8582 38.6036Z" fill="#707070"/>
</svg>
