<svg width="100" height="100" viewBox="0 0 100 100" fill="none" xmlns="http://www.w3.org/2000/svg">
<path d="M89.225 27.5C86.3375 28.8125 83.225 29.675 80 30.0875C83.3 28.1 85.85 24.95 87.05 21.1625C83.9375 23.0375 80.4875 24.35 76.85 25.1C73.8875 21.875 69.725 20 65 20C56.1875 20 48.9875 27.2 48.9875 36.0875C48.9875 37.3625 49.1375 38.6 49.4 39.7625C36.05 39.0875 24.1625 32.675 16.25 22.9625C14.8625 25.325 14.075 28.1 14.075 31.025C14.075 36.6125 16.8875 41.5625 21.2375 44.375C18.575 44.375 16.1 43.625 13.925 42.5C13.925 42.5 13.925 42.5 13.925 42.6125C13.925 50.4125 19.475 56.9375 26.825 58.4C25.475 58.775 24.05 58.9625 22.5875 58.9625C21.575 58.9625 20.5625 58.85 19.5875 58.6625C21.6125 65 27.5 69.725 34.5875 69.8375C29.1125 74.1875 22.175 76.7375 14.6 76.7375C13.325 76.7375 12.05 76.6625 10.775 76.5125C17.9 81.0875 26.375 83.75 35.45 83.75C65 83.75 81.2375 59.225 81.2375 37.9625C81.2375 37.25 81.2375 36.575 81.2 35.8625C84.35 33.6125 87.05 30.7625 89.225 27.5Z" fill="#707070"/>
</svg>
