<svg width="100" height="100" viewBox="0 0 100 100" fill="none" xmlns="http://www.w3.org/2000/svg">
<path d="M69.62 59C69.98 56.03 70.25 53.06 70.25 50C70.25 46.94 69.98 43.97 69.62 41H84.83C85.55 43.88 86 46.895 86 50C86 53.105 85.55 56.12 84.83 59M61.655 84.02C64.355 79.025 66.425 73.625 67.865 68H81.14C76.82 75.425 69.935 81.185 61.655 84.02ZM60.53 59H39.47C39.02 56.03 38.75 53.06 38.75 50C38.75 46.94 39.02 43.925 39.47 41H60.53C60.935 43.925 61.25 46.94 61.25 50C61.25 53.06 60.935 56.03 60.53 59ZM50 85.82C46.265 80.42 43.25 74.435 41.405 68H58.595C56.75 74.435 53.735 80.42 50 85.82ZM32 32H18.86C23.135 24.53 30.065 18.77 38.3 15.98C35.6 20.975 33.575 26.375 32 32ZM18.86 68H32C33.575 73.625 35.6 79.025 38.3 84.02C30.065 81.185 23.135 75.425 18.86 68ZM15.17 59C14.45 56.12 14 53.105 14 50C14 46.895 14.45 43.88 15.17 41H30.38C30.02 43.97 29.75 46.94 29.75 50C29.75 53.06 30.02 56.03 30.38 59M50 14.135C53.735 19.535 56.75 25.565 58.595 32H41.405C43.25 25.565 46.265 19.535 50 14.135ZM81.14 32H67.865C66.425 26.375 64.355 20.975 61.655 15.98C69.935 18.815 76.82 24.53 81.14 32ZM50 5C25.115 5 5 25.25 5 50C5 61.9347 9.74106 73.3807 18.1802 81.8198C22.3588 85.9984 27.3196 89.3131 32.7792 91.5746C38.2389 93.836 44.0905 95 50 95C61.9347 95 73.3807 90.2589 81.8198 81.8198C90.2589 73.3807 95 61.9347 95 50C95 44.0905 93.836 38.2389 91.5746 32.7792C89.3131 27.3196 85.9984 22.3588 81.8198 18.1802C77.6412 14.0016 72.6804 10.6869 67.2208 8.42542C61.7611 6.16396 55.9095 5 50 5Z" fill="#707070"/>
</svg>
