<svg width="296" height="80" viewBox="0 0 296 80" fill="none" xmlns="http://www.w3.org/2000/svg">
<path fill-rule="evenodd" clip-rule="evenodd" d="M143.971 76.763C144.479 77.5337 146.764 78.9981 149.388 79.9229H5.58617C3.63948 79.9229 1.77742 80 0 79.9229C20.9058 76.1464 39.611 68.0539 54.1689 57.1098C54.4229 57.0328 54.7614 56.9557 55.1 56.9557C56.031 56.9557 56.8774 56.9557 57.8084 56.9557C87.2628 56.9557 116.717 56.9557 146.171 56.9557C145.918 57.9576 145.071 59.3449 144.648 60.2697C144.14 61.3487 143.632 62.3507 143.125 63.5067C140.162 70.5973 141.432 74.4509 143.971 76.763ZM162.338 22.4277C165.469 15.4143 168.939 8.78613 175.626 4.23892C179.35 1.69557 181.297 0.770713 184.005 0.231214H44.6047C41.6424 0 38.5107 0.539499 35.8869 2.00385C33.4324 3.31407 31.2318 5.54913 29.539 9.17148L27.8462 12.6397C27.423 13.4104 26.8306 15.106 26.7459 15.7996C26.6613 15.9538 26.5766 16.185 26.5766 16.4162C26.5766 16.8015 26.6613 17.1098 26.8306 17.264C27.8462 18.2659 31.2318 18.9595 34.4481 18.8825C36.9872 18.8054 38.9339 18.42 40.2035 17.8805C40.3728 17.8035 40.6267 17.6493 41.0499 17.4181C41.1345 17.341 41.3038 17.341 41.3885 17.264C41.5577 17.1869 41.727 17.1098 41.8963 17.1098C50.4448 13.8728 61.7864 12.4085 68.3883 13.5645C70.9275 13.8728 74.5669 14.8748 74.3977 14.7977C73.6359 14.1811 60.6015 11.1753 56.5388 6.85934C55.9464 6.24277 54.8461 4.54721 54.7614 3.62235C58.9934 5.6262 61.0247 6.47399 65.7645 7.86127C72.451 9.86512 86.7549 10.6358 92.1718 15.4143C94.0339 16.7245 97.0809 20.3468 97.6734 22.4277H162.338ZM148.457 51.1753C152.519 44.7014 157.344 40.8478 162.93 40.8478C162.507 40.5395 161.999 40.3854 161.491 40C156.751 37.0713 159.46 32.3699 160.391 28.2852C155.566 28.2852 149.557 28.131 144.733 28.131H101.99C102.582 28.7476 103.344 29.2871 103.767 29.5954C104.614 30.289 105.037 30.8285 105.46 31.2909C105.968 31.9075 106.645 33.0636 106.899 33.8343C107.915 36.6089 107.238 38.2274 105.629 40.6166C105.206 41.2331 104.698 42.0038 104.191 42.4663C103.429 43.1599 103.09 43.8536 102.413 44.0077C102.836 43.1599 102.752 41.6185 102.498 40.6166C102.075 38.8439 100.72 36.6859 98.689 35.2986C96.1499 33.3719 92.0026 32.7553 87.686 34.5279C85.4854 34.8362 70.2503 44.7784 63.2253 49.4027C62.7175 49.711 62.4636 49.9422 61.9557 50.2505C61.194 50.7129 61.0247 50.79 60.7708 51.2524L148.457 51.1753ZM150.657 52.8709C154.128 45.7033 160.56 42.0039 166.908 41.2331C159.798 38.3044 161.153 30.9827 163.946 25.2023L167.331 18.1118C174.526 3.15992 184.936 0 197.971 0H215.914C228.61 0 232.926 7.01349 227.002 19.6532L223.87 25.973C222.854 28.5934 217.691 36.5318 208.72 37.9961C215.068 39.8459 213.121 48.632 210.92 53.3333L206.265 63.1214C200.256 75.684 192.384 79.0751 184.513 80H154.466C139.57 77.9191 144.225 66.4354 146.51 61.8112L150.657 52.8709ZM167.077 68.7476H180.62C185.444 68.7476 190.438 66.8979 192.892 61.58L197.293 52.6397C199.663 47.6301 197.293 45.1638 192.215 45.1638H177.573C172.156 45.1638 167.501 47.2447 164.877 52.6397L160.645 61.58C158.021 66.9749 159.883 68.7476 167.077 68.7476ZM182.82 34.1426H197.293C204.826 34.1426 207.789 30.2119 209.566 26.5125L212.444 20.501C216.083 12.948 213.883 11.4836 207.873 11.4836H194.331C186.629 11.4836 183.328 13.8728 180.112 20.501L177.319 26.5125C174.356 32.7553 178.758 34.1426 182.82 34.1426ZM230.049 18.343C234.788 8.47784 241.475 2.46628 250.362 0.0770713H288.619C296.49 2.92871 296.744 10.4046 293.189 17.8805L272.707 60.8863C266.444 73.9884 256.964 79.9229 243.168 79.9229H223.193C210.497 79.9229 203.387 74.1426 209.735 60.8863L230.049 18.343ZM230.641 67.8227H245.368C251.97 67.8227 256.371 65.2794 259.249 59.2678L278.293 19.422C281.086 13.5645 279.901 10.8671 272.961 10.8671H257.472C249.093 10.8671 245.284 15.6455 243.591 19.422L224.632 59.1908C220.485 67.8998 225.901 67.8227 230.641 67.8227Z" fill="#2D2928"/>
<path fill-rule="evenodd" clip-rule="evenodd" d="M213.036 33.0636C211.597 30.9827 216.083 33.4489 216.083 33.4489C216.083 33.4489 217.268 34.605 212.105 29.5183C212.105 29.5183 209.82 27.1291 209.82 26.4354C209.735 25.7418 214.898 29.4412 214.898 29.4412C214.898 29.4412 209.989 24.1233 209.397 23.3526C208.72 22.659 208.974 21.5029 211.174 22.8131C212.952 23.8921 213.629 24.3545 213.883 24.5857C213.459 23.8921 210.92 21.1946 210.497 20.1927C210.074 19.1908 210.328 17.8805 211.682 19.499C215.829 24.2775 224.632 31.4451 228.017 33.6802C231.488 35.8382 237.074 38.3815 241.56 41.5414C243.506 42.9287 244.437 45.4721 245.792 46.3198C247.823 47.4759 248.585 47.3988 248.585 47.3988C248.585 47.3988 247.484 47.0906 246.553 46.3198C247.315 43.8536 247.569 39.4605 249.346 37.9191C252.393 35.4528 258.487 33.3719 260.434 29.9807C262.465 26.6667 261.788 26.8979 263.058 23.738C263.904 21.5029 263.904 24.817 264.412 24.5087C264.666 24.3545 264.835 24.2004 264.751 23.0443C264.412 19.0366 265.259 20.7322 265.766 22.5819C266.19 24.1233 265.851 21.1946 266.02 19.1137C266.697 16.4162 267.628 21.58 267.459 19.3449C267.459 18.9595 267.121 16.4933 266.951 15.183C266.867 14.027 267.205 13.5645 267.628 14.5665C268.559 16.6474 271.099 20.578 271.268 24.5857C271.437 28.5934 267.882 35.8382 264.92 38.921L255.271 49.0173C260.096 49.5568 260.096 50.4817 263.227 49.711C266.782 48.8632 267.713 50.8671 267.713 50.8671C267.713 50.8671 270.252 50.9441 269.66 52.948C269.406 53.6416 269.321 53.7187 269.321 53.7187C269.321 53.7187 269.152 52.4855 267.459 52.7168C266.528 52.8709 265.428 53.1792 260.857 55.6455C256.287 58.1117 254.679 57.1869 253.832 58.7283C252.478 61.0405 255.779 61.2717 255.948 61.7341C256.033 62.1965 255.102 62.3507 255.102 62.3507C255.271 62.659 255.694 63.2755 256.287 63.5838C256.117 63.738 256.033 63.815 255.948 63.8921L254.509 62.736C254.509 62.736 254.086 63.5067 253.578 63.4297C253.071 63.3526 252.901 61.1946 251.039 61.5029C249.177 61.8112 249.77 62.9672 251.208 63.738C251.801 64.0462 251.632 64.7399 251.462 65.0482C251.716 65.3565 251.97 65.8959 252.732 66.1272C252.563 66.2813 252.309 66.3584 252.139 66.4354L250.955 65.5877C250.108 66.2813 248.923 66.3584 247.484 64.6628C247.061 64.1233 244.945 61.58 244.437 60.501C244.014 60.4239 243.76 60.1927 243.506 60.2697C243.168 60.3468 242.829 64.0462 242.745 64.5857C242.745 64.6628 240.629 66.1272 238.766 66.2042C236.481 66.2813 234.365 64.9711 234.281 64.6628C234.111 64.1233 237.243 60.3468 237.412 60.1156C238.089 59.3449 240.882 57.8805 241.052 57.5722C241.136 57.341 241.644 56.262 241.729 55.8767C241.814 55.6455 241.813 55.4143 241.898 55.183C240.544 53.8728 236.058 49.7881 229.456 48.0925C221.5 46.0116 217.438 41.2331 214.729 35.684L213.036 33.0636ZM93.6107 23.3526C93.526 22.3507 88.617 18.42 82.2691 18.0347C82.0152 17.8805 86.0778 19.5761 87.5167 21.1946C87.9399 22.1965 88.7863 22.8131 89.548 23.2755C91.2408 24.3545 92.0025 23.738 93.6107 23.3526ZM70.9275 68.6705H66.6955L65.9338 70.289H67.8804L67.034 72.0617C66.6955 72.2158 66.1877 72.2929 65.6798 72.2929C64.7488 72.2929 64.241 72.0617 63.9024 71.5222C63.6485 70.9827 63.7331 70.289 64.1563 69.3642C64.5795 68.4393 65.2566 67.7457 66.103 67.1291C66.9494 66.5896 67.7958 66.2813 68.7268 66.2813C69.8271 66.2813 70.6735 66.5125 71.266 66.8979L72.197 64.9711C71.5199 64.7399 70.6735 64.5857 69.5732 64.5857C67.8804 64.5857 66.3569 65.0482 64.9181 65.8959C63.4792 66.8208 62.4636 67.9769 61.7864 69.3642C61.1093 70.7514 61.0247 71.9075 61.6172 72.6782C62.125 73.4489 63.2253 73.9114 64.8334 73.9114C66.2723 73.9114 67.6265 73.6801 68.8115 73.1406L70.9275 68.6705ZM81.592 66.2813C82.6076 66.2813 82.9462 66.6667 82.6076 67.4374C82.4383 67.8227 82.0998 68.131 81.6766 68.3622C81.2534 68.5934 80.8302 68.7476 80.3224 68.7476H79.3913L80.5763 66.2042H81.592V66.2813ZM82.523 71.1368C82.523 70.9827 82.4383 70.8285 82.4383 70.6744C82.3537 70.5202 82.3537 70.3661 82.2691 70.289C82.1844 70.1349 82.0998 70.0578 82.0152 69.9807C81.9305 69.9037 81.8459 69.8266 81.6766 69.7495C82.0152 69.6724 82.4384 69.5183 82.7769 69.3642C83.1155 69.21 83.454 69.0559 83.7079 68.8247C83.9618 68.5934 84.3004 68.3622 84.4697 68.131C84.7236 67.8998 84.8929 67.5915 85.0622 67.2832C85.8239 65.6647 84.9775 64.8169 82.6076 64.8169H79.0528L74.8208 73.8343H77.0215L78.6296 70.3661H79.2221C79.3913 70.3661 79.476 70.3661 79.5606 70.4432C79.6453 70.5202 79.7299 70.5973 79.8145 70.6744C79.8992 70.7514 79.8992 70.9056 79.9838 71.0597C79.9838 71.2139 80.0685 71.368 80.0685 71.5222L80.4916 73.8343H83.0308L82.523 71.1368ZM96.1499 66.3584C96.9116 66.3584 97.4195 66.5896 97.5887 67.1291C97.758 67.6686 97.6734 68.3622 97.2502 69.2871C96.827 70.2119 96.2345 70.9056 95.5574 71.368C94.8803 71.9075 94.1185 72.1387 93.3568 72.1387C92.595 72.1387 92.0872 71.9075 91.9179 71.368C91.664 70.8285 91.8333 70.1349 92.2565 69.21C92.6797 68.3622 93.2721 67.5915 93.9493 67.052C94.5417 66.6667 95.3035 66.3584 96.1499 66.3584ZM96.5731 72.6782C97.9273 71.8304 98.8583 70.6744 99.5354 69.21C100.213 67.8227 100.297 66.7437 99.7893 65.8959C99.2815 65.0482 98.3505 64.6628 96.9116 64.6628C95.3881 64.6628 94.0339 65.1252 92.6797 65.973C91.3254 66.8208 90.3944 67.9769 89.7173 69.4412C89.0402 70.8285 89.0402 71.9075 89.548 72.7553C90.0559 73.6031 90.9869 73.9884 92.4257 73.9884C93.8646 73.9884 95.3035 73.526 96.5731 72.6782ZM115.786 64.8169H113.585L111.046 70.1349C110.369 71.5221 109.438 72.2158 108.169 72.2158C106.899 72.2158 106.645 71.5222 107.322 70.0578L109.777 64.8169H107.576L105.122 70.0578C103.852 72.6782 104.614 74.0655 107.322 74.0655C110.115 74.0655 112.147 72.6782 113.416 69.9807L115.786 64.8169ZM124.673 66.3584C125.858 66.3584 126.281 66.8208 125.774 67.7457C125.35 68.6705 124.504 69.1329 123.319 69.1329H122.473L123.827 66.2813H124.673V66.3584ZM122.811 70.7514C123.996 70.7514 125.096 70.4432 126.112 69.9037C127.128 69.3642 127.805 68.5935 128.228 67.6686C129.159 65.7418 128.313 64.8169 125.858 64.8169H122.388L118.156 73.8343H120.357L121.795 70.7514H122.811Z" fill="#E9B415"/>
</svg>
