<svg version="1.2" xmlns="http://www.w3.org/2000/svg" viewBox="0 0 1884 364" width="1884" height="364">
	<title>nextome-logo-blu-inline-2023-pdf</title>
	<defs>
		<clipPath clipPathUnits="userSpaceOnUse" id="cp1">
			<path d="m0 0h1884v364h-1884z"/>
		</clipPath>
	</defs>
	<style>
		.s0 { fill: #0f2f3a } 
	</style>
	<g id="Page 1" clip-path="url(#cp1)">
		<path id="Path 1" fill-rule="evenodd" class="s0" d="m1161.4 277.2c-9.5 3.3-17.8 4.8-28.4 5.1-17.1 0.6-31.2-3.9-40.7-13.1-10.3-9.9-15.5-25-15.5-44.7v-81.5h-32.5v-25.2h32.5v-45.7l31-3.3v49h48v25.2h-48.3v81.5c0 19 10.9 30.8 28.5 30.8 5.4 0 11.4-1.2 17.2-3.2zm93.5 6.8c-49.6 0-84.3-35-84.3-85.1 0-23.4 8-44.7 22.6-60.2 15.4-16.3 36.6-24.9 61.4-24.9 49.2 0 85 35.8 85 85.1 0 50.1-34.8 85.1-84.7 85.1zm53.3-85.1c0-14.5-5.2-29-14.2-39.6-10-11.7-23.8-18.2-39.1-18.2-34.9 0-53.2 29.1-53.2 57.8 0 15.1 4.7 29.2 13.2 39.5 9.7 11.7 23.5 17.9 40 17.9 36.6 0 53.3-29.8 53.3-57.4zm-794.1-84.9c0 5.4-4.4 9.8-9.8 9.8-5.4 0-9.8-4.4-9.8-9.8 0-5.4 4.4-9.8 9.8-9.8 5.4 0.1 9.8 4.4 9.8 9.8zm-9.8-7.8c-4.3 0-7.8 3.5-7.8 7.8 0 4.3 3.5 7.8 7.8 7.8 4.3 0 7.8-3.5 7.8-7.8 0-4.3-3.5-7.8-7.8-7.8z"/>
		<path id="Path 2" fill-rule="evenodd" class="s0" d="m506 114.2q0.3 0.1 0.5 0.2 0.4 0.3 0.7 0.7 0.4 0.5 0.7 1.1 0.7 1.4 1.3 2.7 0 0.1 0.1 0.1c-0.9 0-1.9 0-2.8 0q-0.1 0-0.1-0.1-0.6-1.2-1.2-2.5-0.2-0.4-0.5-0.8-0.4-0.4-1-0.5-0.5 0-1 0 0 0 0 0v3.9h-2.7v-10.2c1.4 0 2.7 0 4.1 0q0.7 0 1.5 0.1 0.6 0.1 1.2 0.4 0.8 0.4 1 1.3 0.3 0.9 0 1.9-0.2 0.9-1.1 1.4-0.3 0.2-0.6 0.3-0.1 0-0.1 0zm-3.3-3.5v2.6q0 0 0 0 0.5 0 1.1 0 0.4 0 0.7-0.1 0.6-0.2 0.8-0.7 0.1-0.5 0-1-0.2-0.6-0.7-0.7-0.4-0.1-0.7-0.1-0.6 0-1.1 0zm76.2 80.5v89.9h-12.5v-161h12.1v34.8l3.6-6.4c14.9-26.8 42-31.2 56.7-31.4 43.9 0 72.2 27.8 72.2 70.8v93.2h-12.5v-92.9c0-18.1-5.5-33.1-15.7-43.2-10.5-10.4-26-15.8-44.6-15.7-34.4 0.4-59.3 26.4-59.3 61.9zm309.8 15.2h-148l0.1 2c3.2 37 31.4 62.8 68.6 62.8 20 0 45.7-7.5 59.4-24.2l8.7 6.9c-14.7 18.2-40.6 29.5-68.1 29.5-47.9 0-81.4-34.1-81.4-82.8 0-47.4 35-83.2 81.4-83.2 25.4 0 47.1 8.6 61.3 24.2 14.1 15.6 20.3 37.9 18 64.8zm-11-10.6v-1.9c-0.3-40.2-26.5-65.2-68.3-65.2-37.5 0-65 26.1-68.6 65.1l-0.2 2zm81.8 10.2l-54.7 75.1h-15l62.5-83.5-57.9-77.5h15.4l49.7 68.7 49.8-68.7h15.3l-57 76.4-0.8 1.1 62.5 83.5h-15zm536.2-20.8v95.8h-12.5v-95.8c0-33.4-22.5-56.6-54.7-56.6-32 0-54.3 23.2-54.3 56.6v95.8h-12.5v-161h11.5l0.4 33 3.5-6.6c9.8-18.9 28.7-29.7 51.7-29.7 28.9 0 50.9 14.7 59 39.4l1.7 5.1 1.9-5.1c8.8-23.9 31.9-39.4 58.9-39.4 39.4 0 66.8 27.7 66.8 67.5v96.8h-12.4v-96.8c0-33-22.4-56-54.4-56-31.7 0-54.6 24-54.6 57zm302.5 21.1h-148l0.1 2c3.2 37 31.4 62.8 68.6 62.8 20 0 45.7-7.5 59.4-24.2l8.7 6.9c-14.7 18.3-40.6 29.5-68.1 29.5-47.9 0-81.4-34-81.4-82.8 0-47.4 35-83.1 81.4-83.1 25.4 0 47.1 8.6 61.3 24.1 14.1 15.6 20.3 37.9 18 64.8zm-11-10.6v-1.9c-0.3-40.2-26.5-65.2-68.3-65.2-37.5 0-65 26.1-68.6 65.1l-0.2 2zm-1272 11.8c-2.8 20.2-12 38.5-26.4 53-14.5 14.4-32.8 23.6-53 26.4q-6.6 1-13.3 1-6.6 0-13.2-1c-20.2-2.8-38.5-12-52.9-26.4l-115.8-115.8c-27-27-71.1-27-98.2 0.1-13.1 13.1-20.3 30.6-20.3 49.2 0 18.6 7.2 36 20.3 49.1 13.1 13.1 30.6 20.4 49.2 20.4h0.1c18.6 0 36-7.2 49.1-20.3l11.4-11.4h-22-0.1c-3.2 0-6.1-1.2-8.4-3.4-2.3-2.3-3.5-5.3-3.5-8.6 0-3.2 1.3-6.2 3.5-8.5 2.3-2.2 5.3-3.5 8.6-3.5h51.3 0.1c3.1 0 6.1 1.3 8.4 3.5 2.3 2.3 3.5 5.4 3.5 8.6v51.3c0 3.2-1.2 6.2-3.5 8.5-2.3 2.3-5.3 3.5-8.5 3.5-3.3 0-6.3-1.3-8.6-3.5-2.2-2.3-3.5-5.4-3.6-8.6l-0.1-22.3-11.4 11.5c-14.4 14.3-32.7 23.5-53.1 26.4-8.4 1.2-17.3 1.1-26.6-0.2-20.2-2.9-38.5-12-52.9-26.4-14.5-14.5-23.7-32.8-26.5-53-1.3-8.9-1.3-17.8 0-26.5 2.9-20.2 12-38.5 26.5-52.9 14.4-14.5 32.7-23.6 52.9-26.5 8.7-1.3 17.6-1.3 26.5 0 20.2 2.8 38.5 12 53 26.5l115.7 115.7c27.1 27.1 71.2 27.1 98.3 0 27.1-27.1 27-71.2-0.1-98.4-13.1-13.1-30.6-20.3-49.2-20.3h-0.1c-18.6 0-36 7.2-49.1 20.2l-11.5 11.5 22.3 0.1h0.1c3.2 0 6.2 1.2 8.5 3.5 2.3 2.3 3.5 5.4 3.5 8.6 0 3.2-1.2 6.3-3.5 8.6-2.3 2.2-5.3 3.4-8.5 3.4l-51.3 0.1c-3.2 0-6.2-1.3-8.5-3.5-2.2-2.3-3.5-5.3-3.5-8.6v-3.8-47.4c0-3.3 1.2-6.3 3.5-8.6 2.3-2.2 5.3-3.5 8.5-3.5h0.1c3.2 0 6.2 1.3 8.4 3.5 2.3 2.2 3.5 5.3 3.5 8.5l-0.1 22 11.5-11.4c14.3-14.4 32.7-23.5 53-26.4 8.7-1.3 17.6-1.2 26.6 0 20.1 2.9 38.5 12.1 52.9 26.5 14.5 14.5 23.7 32.8 26.5 53 1.3 8.8 1.3 17.7 0 26.5z"/>
	</g>
</svg>